<svg preserveAspectRatio="none" overflow="visible" style="display: block;" width="32" height="32" viewBox="0 0 32 32" fill="none" xmlns="http://www.w3.org/2000/svg">
<g id="fi-rr-arrow-left" clip-path="url(#clip0_0_75)">
<path id="Vector" d="M1.17353 18.7867L6.33353 24C6.45748 24.125 6.60495 24.2242 6.76743 24.2918C6.92991 24.3595 7.10418 24.3944 7.2802 24.3944C7.45622 24.3944 7.63049 24.3595 7.79297 24.2918C7.95545 24.2242 8.10292 24.125 8.22687 24C8.35184 23.876 8.45103 23.7286 8.51872 23.5661C8.58641 23.4036 8.62126 23.2293 8.62126 23.0533C8.62126 22.8773 8.58641 22.703 8.51872 22.5406C8.45103 22.3781 8.35184 22.2306 8.22687 22.1067L3.4802 17.3333H30.6669C31.0205 17.3333 31.3596 17.1928 31.6097 16.9428C31.8597 16.6928 32.0002 16.3536 32.0002 16C32.0002 15.6464 31.8597 15.3072 31.6097 15.0572C31.3596 14.8071 31.0205 14.6667 30.6669 14.6667H3.4002L8.22687 9.83999C8.46325 9.59202 8.59512 9.26258 8.59512 8.91999C8.59512 8.5774 8.46325 8.24796 8.22687 7.99999C8.10292 7.87502 7.95545 7.77583 7.79297 7.70813C7.63049 7.64044 7.45622 7.60559 7.2802 7.60559C7.10418 7.60559 6.92991 7.64044 6.76743 7.70813C6.60495 7.77583 6.45748 7.87502 6.33353 7.99999L1.17353 13.1333C0.424463 13.8833 0.00371907 14.9 0.00371907 15.96C0.00371907 17.02 0.424463 18.0367 1.17353 18.7867V18.7867Z" fill="#555555"/>
</g>
<defs>
<clipPath id="clip0_0_75">
<rect width="32" height="32" fill="white"/>
</clipPath>
</defs>
</svg>
